<svg xmlns="http://www.w3.org/2000/svg" width="200" height="200" fill="none" xmlns:v="https://vecta.io/nano"><g clip-path="url(#A)"><path d="M194.321 194.574a13.47 13.47 0 0 1-19.044 0l-44.817-44.817a4.31 4.31 0 0 1 0-6.095l12.95-12.949a4.31 4.31 0 0 1 6.093 0l44.817 44.816a13.47 13.47 0 0 1 .001 19.045z" fill="#a4c9ff"/><path d="M143.266 130.858l-14.395-14.396c-1.811 2.34-3.769 4.602-5.915 6.746s-4.406 4.104-6.747 5.915l14.397 14.395 12.66-12.66z" fill="#ffea92"/><path d="M122.732 22.851C95.002-4.881 49.981-4.981 22.374 22.626s-27.507 72.628.225 100.359 72.75 27.832 100.357.223 27.507-72.627-.224-100.357zm-13.653 86.478c-9.668 9.666-22.565 14.972-36.317 14.939-13.742-.034-26.651-5.395-36.352-15.095-20.078-20.078-20.15-52.678-.157-72.668 9.664-9.666 22.563-14.972 36.315-14.938 13.742.034 26.652 5.394 36.353 15.096s15.063 22.617 15.095 36.362-5.274 26.64-14.936 36.305z" fill="#f9a7a7"/><g fill="#304860"><path d="M184.799 200.252a15.09 15.09 0 0 1-10.747-4.453l-44.815-44.817a6.05 6.05 0 0 1 0-8.543l12.949-12.95a6 6 0 0 1 4.272-1.77 6 6 0 0 1 4.274 1.77l44.815 44.817A15.09 15.09 0 0 1 200 185.053c0 4.059-1.581 7.875-4.453 10.746a15.1 15.1 0 0 1-10.748 4.453zm-38.341-69.069c-.689 0-1.335.269-1.823.755l-12.949 12.95a2.58 2.58 0 0 0 0 3.644l44.816 44.815c2.216 2.217 5.163 3.437 8.297 3.437s6.08-1.22 8.297-3.437a11.66 11.66 0 0 0 3.436-8.296c0-3.134-1.221-6.081-3.436-8.296l-44.818-44.817c-.484-.486-1.133-.755-1.82-.755z"/><path d="M130.606 145.252a1.73 1.73 0 0 1-1.225-.508l-14.397-14.395c-.352-.352-.535-.838-.504-1.336a1.73 1.73 0 0 1 .67-1.259c2.385-1.848 4.6-3.789 6.58-5.77s3.924-4.197 5.77-6.582c.305-.394.764-.638 1.261-.668a1.72 1.72 0 0 1 1.336.504l14.395 14.395a1.74 1.74 0 0 1 .507 1.225c0 .461-.183.901-.507 1.226l-12.661 12.66a1.73 1.73 0 0 1-1.225.508zm-11.797-15.981l11.797 11.797 10.209-10.21-11.797-11.797-4.837 5.372c-1.65 1.652-3.451 3.274-5.372 4.838z"/><path d="M72.987 145.582h-.168c-19.439-.044-37.71-7.634-51.446-21.372S.044 92.201 0 72.764c-.042-19.442 7.467-37.683 21.147-51.363C49.43-6.882 95.55-6.782 123.958 21.626c13.738 13.738 21.327 32.009 21.371 51.446.043 19.442-7.467 37.682-21.148 51.363-13.64 13.64-31.816 21.147-51.194 21.147zM72.346 3.719c-17.675 0-35.322 6.706-48.747 20.133C10.575 36.875 3.426 54.242 3.466 72.755s7.271 35.918 20.358 49.004 30.488 20.314 49.004 20.356h.159c18.454 0 35.758-7.146 48.745-20.131 13.024-13.024 20.173-30.391 20.131-48.904s-7.271-35.919-20.356-49.006C107.94 10.509 90.127 3.719 72.346 3.719zm.543 122.282h-.132c-14.204-.034-27.546-5.575-37.573-15.602-10.037-10.037-15.581-23.386-15.612-37.589s5.459-27.532 15.455-37.53c9.962-9.964 23.245-15.446 37.413-15.446h.132c14.202.034 27.546 5.575 37.575 15.604s15.569 23.377 15.601 37.583c.033 14.212-5.453 27.543-15.446 37.534-9.962 9.966-23.247 15.448-37.413 15.448zM72.44 23.3c-13.242 0-25.654 5.122-34.963 14.431-9.339 9.339-14.468 21.796-14.439 35.073a49.53 49.53 0 0 0 14.596 35.145c9.373 9.373 21.849 14.554 35.13 14.586h.122c13.242.002 25.655-5.121 34.965-14.43 9.334-9.334 14.461-21.791 14.43-35.076s-5.21-25.762-14.588-35.14A49.53 49.53 0 0 0 72.562 23.3h-.122z"/></g><path d="M90.943 76.262c3.801-4.152 6.122-9.683 6.122-15.756 0-12.892-10.45-23.342-23.342-23.342s-23.34 10.451-23.34 23.342c0 6.073 2.321 11.602 6.122 15.756h-.061c3.859 4.57 6.191 10.472 6.191 16.922a26.8 26.8 0 0 1-.029 1.168h22.231a26.8 26.8 0 0 1-.029-1.168 26.13 26.13 0 0 1 6.193-16.922h-.059z" fill="#ffea94"/><g fill="#ffe164"><path d="M90.474 36.276l.097.096c1.34 1.34 3.515 1.34 4.856 0l7.523-7.523c1.34-1.34 1.34-3.515 0-4.856l-.096-.095c-1.341-1.342-3.516-1.342-4.856 0l-7.523 7.522c-1.341 1.342-1.341 3.515 0 4.856zM73.26 29.459h-.127a3.44 3.44 0 0 1-3.437-3.439V15.343a3.44 3.44 0 0 1 3.438-3.437h.127a3.44 3.44 0 0 1 3.438 3.438v10.677a3.44 3.44 0 0 1-3.437 3.439zm-17.049 6.817l-.097.096c-1.34 1.34-3.515 1.34-4.856 0l-7.522-7.523c-1.34-1.34-1.34-3.515 0-4.856l.096-.095a3.43 3.43 0 0 1 4.854 0l7.523 7.522c1.34 1.342 1.34 3.515 0 4.856z"/></g><path d="M98.289 46.425v-.135c0-1.897 1.537-3.434 3.432-3.434h10.639c1.896 0 3.435 1.537 3.435 3.434v.135c0 1.896-1.539 3.432-3.435 3.432h-10.639c-1.895 0-3.432-1.537-3.432-3.432z" fill="#ffdc85"/><path d="M30.599 46.425v-.135c0-1.897 1.538-3.434 3.434-3.434h10.639c1.896 0 3.432 1.537 3.432 3.434v.135c0 1.896-1.537 3.432-3.432 3.432H34.032c-1.896 0-3.432-1.537-3.432-3.432z" fill="#ffe164"/><g fill="#6bdddd"><path d="M85.283 101.354H62.165a1.28 1.28 0 0 1-1.278-1.28V95.63a1.28 1.28 0 0 1 1.278-1.278h23.118a1.28 1.28 0 0 1 1.278 1.278v4.444a1.28 1.28 0 0 1-1.278 1.28z"/><path d="M83.372 108.356H64.658c-1.115 0-2.023-.906-2.023-2.023v-4.981h22.758v4.981a2.02 2.02 0 0 1-2.021 2.023z"/><path d="M76.057 117.692h-4.668c-3.867 0-7.002-3.136-7.002-7.002v-2.334h18.674v2.334c-.002 3.866-3.136 7.002-7.004 7.002z"/></g><g fill="#304860"><path d="M85.283 103.087H62.165c-1.66 0-3.011-1.352-3.011-3.013v-4.446c0-1.66 1.351-3.011 3.011-3.011h23.118c1.66 0 3.011 1.351 3.011 3.011v4.446c0 1.661-1.351 3.013-3.011 3.013zM62.62 99.621h22.208v-3.536H62.62v3.536z"/><path d="M83.372 110.089H64.658a3.76 3.76 0 0 1-3.756-3.754v-4.981c0-.958.777-1.733 1.733-1.733h22.758c.956 0 1.733.775 1.733 1.733v4.981a3.76 3.76 0 0 1-3.754 3.754zm-19.002-7.002v3.248c0 .158.129.288.288.288h18.716a.29.29 0 0 0 .288-.288v-3.248H64.37z"/><path d="M76.057 119.425h-4.668c-4.817 0-8.735-3.918-8.735-8.737v-2.332c0-.958.777-1.733 1.733-1.733h18.674c.956 0 1.733.775 1.733 1.733v2.332a8.75 8.75 0 0 1-8.737 8.737zm-9.937-9.336v.599c0 2.908 2.364 5.271 5.269 5.271h4.668a5.28 5.28 0 0 0 5.271-5.271v-.599H66.121zm18.72-14.005H62.609a1.73 1.73 0 0 1-1.731-1.808l.027-1.093a24.52 24.52 0 0 0-5.783-15.803 1.86 1.86 0 0 1-.195-.281c-4.05-4.585-6.276-10.46-6.276-16.592 0-13.825 11.249-25.075 25.075-25.075S98.798 46.68 98.798 60.507a25.01 25.01 0 0 1-6.276 16.592 1.59 1.59 0 0 1-.195.281 24.52 24.52 0 0 0-5.783 15.803 26.1 26.1 0 0 0 .027 1.093c.022.472-.152.931-.479 1.273s-.78.535-1.252.535zm-20.476-3.466h18.721a28 28 0 0 1 6.317-17.14 1.66 1.66 0 0 1 .264-.386 21.55 21.55 0 0 0 5.667-14.585c0-11.915-9.693-21.609-21.607-21.609s-21.608 9.693-21.608 21.609c0 5.413 2.012 10.594 5.667 14.585.112.122.203.255.274.399a28 28 0 0 1 6.306 17.127z"/></g><path d="M74.043 85.522c-3.179 0-5.396-3.415-3.273-6.867.063-.102.149-.196.245-.267 3.412-2.534 7.083-.272 7.083 3.023 0 2.309-1.802 4.111-4.055 4.111zM71.33 45.993h5.034a.87.87 0 0 1 .867.89l-.686 25.578a.87.87 0 0 1-.867.843h-3.663c-.471 0-.853-.374-.867-.843l-.686-25.578a.87.87 0 0 1 .867-.89z" fill="#f9a7a7"/></g><defs><clipPath id="A"><path fill="#fff" d="M0 0h200v200H0z"/></clipPath></defs></svg>