<svg width="18" height="18" viewBox="0 0 18 18" fill="none" xmlns="http://www.w3.org/2000/svg">
<path d="M2.77778 1V13.4444V1ZM2.77778 13.4444C2.42617 13.4444 2.08245 13.5487 1.7901 13.7441C1.49774 13.9394 1.26988 14.217 1.13533 14.5419C1.00077 14.8667 0.965564 15.2242 1.03416 15.569C1.10276 15.9139 1.27207 16.2307 1.5207 16.4793C1.76933 16.7279 2.0861 16.8972 2.43095 16.9658C2.77581 17.0344 3.13326 16.9992 3.4581 16.8647C3.78295 16.7301 4.0606 16.5023 4.25595 16.2099C4.45129 15.9175 4.55556 15.5738 4.55556 15.2222C4.55556 14.7507 4.36826 14.2985 4.03486 13.9651C3.70146 13.6317 3.24927 13.4444 2.77778 13.4444Z" stroke="#464646" stroke-width="1.5" stroke-linecap="round" stroke-linejoin="round"/>
<path d="M8.99995 4.55556V17V4.55556ZM8.99995 1C8.64834 1 8.30462 1.10426 8.01227 1.29961C7.71991 1.49495 7.49205 1.77261 7.35749 2.09745C7.22294 2.4223 7.18773 2.77975 7.25633 3.1246C7.32492 3.46946 7.49424 3.78623 7.74287 4.03486C7.99149 4.28348 8.30826 4.4528 8.65312 4.5214C8.99797 4.58999 9.35543 4.55479 9.68027 4.42023C10.0051 4.28567 10.2828 4.05781 10.4781 3.76546C10.6735 3.4731 10.7777 3.12939 10.7777 2.77778C10.7777 2.30628 10.5904 1.8541 10.257 1.5207C9.92363 1.1873 9.47144 1 8.99995 1Z" stroke="#464646" stroke-width="1.5" stroke-linecap="round" stroke-linejoin="round"/>
<path d="M15.2221 10.7778V17V10.7778ZM15.2221 7.22222V1V7.22222ZM15.2221 7.22222C14.8705 7.22222 14.5268 7.32649 14.2344 7.52183C13.9421 7.71718 13.7142 7.99483 13.5797 8.31967C13.4451 8.64452 13.4099 9.00197 13.4785 9.34683C13.5471 9.69168 13.7164 10.0085 13.965 10.2571C14.2137 10.5057 14.5304 10.675 14.8753 10.7436C15.2201 10.8122 15.5776 10.777 15.9024 10.6425C16.2273 10.5079 16.5049 10.28 16.7003 9.98768C16.8956 9.69533 16.9999 9.35161 16.9999 9C16.9999 8.5285 16.8126 8.07632 16.4792 7.74292C16.1458 7.40952 15.6936 7.22222 15.2221 7.22222Z" stroke="#464646" stroke-width="1.5" stroke-linecap="round" stroke-linejoin="round"/>
</svg>
