<svg width="200" height="200" viewBox="0 0 200 200" fill="none" xmlns="http://www.w3.org/2000/svg">
<g clip-path="url(#clip0)">
<path d="M93.3781 176.716H35.9633C28.043 176.716 21.4023 170.734 20.5781 162.857L9.25899 54.6723L17.5379 50.6481H111.236L120.082 54.6723L108.763 162.857C107.939 170.734 101.298 176.716 93.3781 176.716Z" fill="#DDDAEC"/>
<path d="M120.082 54.6723L111.389 50.6481H17.7746L9.25938 54.6723L9.9582 61.3524H100.966C106.164 61.3524 110.219 65.8532 109.678 71.0235L100.07 162.857C99.2457 170.734 92.6051 176.716 84.6848 176.716H93.3781C101.298 176.716 107.939 170.734 108.763 162.857L119.384 61.3524L120.082 54.6723Z" fill="#D0CEE7"/>
<path d="M2.14609 54.6723H127.195C128.38 54.6723 129.341 53.7114 129.341 52.5262V42.6532C129.341 41.468 128.38 40.5071 127.195 40.5071H2.14609C0.960938 40.5071 0 41.468 0 42.6532V52.5262C0 53.7114 0.960938 54.6723 2.14609 54.6723Z" fill="#407093"/>
<path d="M127.195 40.5071H119.229C120.414 40.5071 121.375 41.468 121.375 42.6532V52.5262C121.375 53.7114 120.414 54.6723 119.229 54.6723H127.195C128.38 54.6723 129.341 53.7114 129.341 52.5262V42.6532C129.341 41.468 128.38 40.5071 127.195 40.5071Z" fill="#365E7D"/>
<path d="M195.125 134.031C182.899 116.479 169.884 102.684 155.478 95.5129H138.097C123.691 102.684 110.676 116.479 98.4504 134.031C95.3129 138.535 93.5668 143.89 93.5754 149.379C93.5754 149.502 93.5762 149.623 93.5769 149.746C93.6906 164.699 105.952 176.717 120.906 176.717H172.67C187.623 176.717 199.885 164.699 199.999 149.746C200 149.624 200 149.502 200 149.379C200.009 143.89 198.262 138.535 195.125 134.031Z" fill="#407093"/>
<path d="M195.125 134.031C182.899 116.479 169.884 102.685 155.478 95.5129H145.072C159.478 102.684 172.493 116.479 184.719 134.031C187.856 138.535 189.602 143.89 189.594 149.379C189.594 149.502 189.593 149.623 189.592 149.746C189.479 164.699 177.217 176.717 162.263 176.717H172.669C187.623 176.717 199.884 164.699 199.998 149.746C199.999 149.623 200 149.502 200 149.379C200.009 143.89 198.262 138.535 195.125 134.031Z" fill="#365E7D"/>
<path d="M138.097 95.5129L131.68 77.4063C131.018 75.5379 131.455 73.4563 132.811 72.0113L135.968 68.6477C137.223 67.3102 139.081 66.7172 140.879 67.0801L157.912 70.5176C159.846 70.9078 161.404 72.3414 161.953 74.2371L163.097 78.1903C163.484 79.5242 163.33 80.9571 162.671 82.1793L155.477 95.5129H138.097Z" fill="#407093"/>
<path d="M163.098 78.1903L161.954 74.2371C161.405 72.3414 159.847 70.9078 157.913 70.5176L140.88 67.0801C139.082 66.7172 137.224 67.3102 135.969 68.6477L132.984 71.8278L148.568 74.9727C150.502 75.3629 152.059 76.7965 152.608 78.6922L153.753 82.6453C154.139 83.9793 153.986 85.4121 153.327 86.6344L148.536 95.5133H155.478L162.671 82.1797C163.331 80.9571 163.484 79.5246 163.098 78.1903Z" fill="#365E7D"/>
<path d="M162.09 98.5313H131.485C129.818 98.5313 128.467 97.1801 128.467 95.5133C128.467 93.8461 129.818 92.4954 131.485 92.4954H162.09C163.757 92.4954 165.108 93.8465 165.108 95.5133C165.108 97.1801 163.757 98.5313 162.09 98.5313Z" fill="#365E7D"/>
<path d="M141.2 106.57C140.876 106.57 140.548 106.518 140.225 106.408C138.647 105.87 137.805 104.154 138.343 102.577L141.084 94.5391C141.622 92.9614 143.339 92.1192 144.915 92.6567C146.493 93.1946 147.335 94.9102 146.797 96.4875L144.056 104.525C143.628 105.78 142.455 106.57 141.2 106.57Z" fill="#365E7D"/>
<path d="M152.375 105.832C151.095 105.832 149.908 105.011 149.5 103.727L147.18 96.4274C146.675 94.8391 147.554 93.1418 149.142 92.6371C150.729 92.1328 152.427 93.0106 152.932 94.5992L155.252 101.899C155.757 103.487 154.878 105.184 153.29 105.689C152.986 105.786 152.678 105.832 152.375 105.832Z" fill="#365E7D"/>
<path d="M87.8047 40.5071H41.5367L46.1719 29.986C47.2648 27.5051 49.7199 25.9039 52.4309 25.9039H76.9106C79.6215 25.9039 82.0766 27.5051 83.1695 29.986L87.8047 40.5071Z" fill="#DDDAEC"/>
<path d="M83.1695 29.986C82.0766 27.5051 79.6215 25.9039 76.9105 25.9039H68.3379C71.0488 25.9039 73.5039 27.5051 74.5969 29.986L79.232 40.5071H87.8047L83.1695 29.986Z" fill="#D0CEE7"/>
<path d="M85.2551 137.786C83.5879 137.786 82.2371 136.435 82.2371 134.768V92.257C82.2371 90.5899 83.5883 89.2391 85.2551 89.2391C86.9219 89.2391 88.273 90.5902 88.273 92.257V134.768C88.2734 136.435 86.9223 137.786 85.2551 137.786Z" fill="#D0CEE7"/>
<path d="M64.6707 147.525C63.0035 147.525 61.6527 146.174 61.6527 144.507V82.518C61.6527 80.8508 63.0039 79.5 64.6707 79.5C66.3379 79.5 67.6887 80.8512 67.6887 82.518V144.507C67.6887 146.174 66.3379 147.525 64.6707 147.525Z" fill="#D0CEE7"/>
<path d="M44.0863 137.786C42.4191 137.786 41.0684 136.435 41.0684 134.768V92.257C41.0684 90.5899 42.4195 89.2391 44.0863 89.2391C45.7535 89.2391 47.1043 90.5902 47.1043 92.257V134.768C47.1043 136.435 45.7531 137.786 44.0863 137.786Z" fill="#D0CEE7"/>
<path d="M22.418 24.3274L25.1738 29.3664C25.3582 29.7031 25.6348 29.9801 25.9715 30.1641L31.0105 32.9199C32.4023 33.6813 32.4023 35.6805 31.0105 36.4418L25.9715 39.1977C25.6348 39.382 25.3578 39.6586 25.1738 39.9953L22.418 45.0344C21.6566 46.4262 19.6574 46.4262 18.8961 45.0344L16.1402 39.9953C15.9559 39.6586 15.6793 39.3817 15.3426 39.1977L10.3035 36.4418C8.91172 35.6805 8.91172 33.6813 10.3035 32.9199L15.3426 30.1641C15.6793 29.9797 15.9562 29.7031 16.1402 29.3664L18.8961 24.3274C19.6574 22.9356 21.6566 22.9356 22.418 24.3274Z" fill="#D3EFFB"/>
<path d="M185.695 107.855L188.45 112.895C188.635 113.231 188.911 113.508 189.248 113.692L194.287 116.448C195.679 117.209 195.679 119.209 194.287 119.97L189.248 122.726C188.911 122.91 188.634 123.187 188.45 123.523L185.695 128.563C184.933 129.954 182.934 129.954 182.173 128.563L179.417 123.523C179.233 123.187 178.956 122.91 178.619 122.726L173.58 119.97C172.188 119.209 172.188 117.209 173.58 116.448L178.619 113.692C178.956 113.508 179.233 113.231 179.417 112.895L182.173 107.855C182.934 106.464 184.933 106.464 185.695 107.855Z" fill="#D3EFFB"/>
</g>
<defs>
<clipPath id="clip0">
<rect width="200" height="200" fill="white"/>
</clipPath>
</defs>
</svg>
