<svg width="30" height="31" viewBox="0 0 30 31" fill="none" xmlns="http://www.w3.org/2000/svg">
<path d="M30 15.75C30 24.0333 23.2833 30.75 15 30.75C6.71668 30.75 3.8147e-06 24.0333 3.8147e-06 15.75C3.8147e-06 7.46568 6.71618 0.75 15 0.75C23.2838 0.75 30 7.46568 30 15.75ZM27.75 15.75C27.75 8.70836 22.0412 3 15 3C7.95879 3 2.25 8.70836 2.25 15.75C2.25 22.7907 7.95932 28.5 15 28.5C22.0407 28.5 27.75 22.7907 27.75 15.75ZM18.0693 21.6236L17.9607 21.75C17.5621 22.1502 16.9372 22.1879 16.4961 21.8621L16.3697 21.7534L11.1407 16.5469C10.7392 16.1472 10.7027 15.5199 11.0312 15.0788L11.1407 14.9525L16.3697 9.74599C16.81 9.3076 17.5223 9.30914 17.9607 9.74942C18.3592 10.1497 18.3942 10.7748 18.0664 11.2145L17.9572 11.3404L13.53 15.7482L17.9572 20.159C18.3575 20.5575 18.3951 21.1824 18.0693 21.6236Z" fill="white"/>
</svg>
