<svg width="12" height="14" viewBox="0 0 12 14" fill="none" xmlns="http://www.w3.org/2000/svg">
<path d="M8.43311 1.57867e-06C8.71614 -0.000696485 8.93993 0.230188 8.94059 0.538034L8.94125 1.06277C10.7777 1.21389 11.9908 2.52784 11.9928 4.54283L12 10.4409C12.0026 12.6378 10.6882 13.9895 8.58121 13.993L3.43459 14C1.3408 14.0028 0.00988213 12.6189 0.00724926 10.4157L4.41826e-06 4.5869C-0.00262402 2.55862 1.16769 1.24818 3.00412 1.07117L3.00346 0.546429C3.0028 0.238584 3.22001 0.00699966 3.50963 0.00699966C3.79925 0.00630001 4.01646 0.237184 4.01712 0.54503L4.01778 1.03478L7.92759 1.02919L7.92694 0.539433C7.92628 0.231587 8.14349 0.000702814 8.43311 1.57867e-06ZM8.70166 9.93432H8.69508C8.3923 9.94202 8.14941 10.2086 8.156 10.5304C8.15665 10.8523 8.40085 11.1174 8.70363 11.1244C9.01234 11.1237 9.26246 10.8572 9.2618 10.5283C9.2618 10.1995 9.01102 9.93432 8.70166 9.93432ZM3.27794 9.93502C2.97516 9.94902 2.7382 10.2156 2.73886 10.5374C2.75268 10.8593 3.0028 11.1111 3.30558 11.0964C3.60244 11.0824 3.83874 10.8159 3.82492 10.494C3.81834 10.1792 3.57414 9.93432 3.27794 9.93502ZM5.9898 9.93152C5.68702 9.94622 5.45072 10.2121 5.45072 10.5339C5.46454 10.8558 5.71466 11.1069 6.01744 11.0929C6.31364 11.0783 6.5506 10.8124 6.53678 10.4898C6.5302 10.1757 6.286 9.93083 5.9898 9.93152ZM3.27465 7.41628C2.97187 7.43028 2.73557 7.69685 2.73622 8.01868C2.74939 8.34052 3.00017 8.5924 3.30295 8.5777C3.59915 8.56371 3.83545 8.29714 3.82163 7.97531C3.81504 7.66046 3.5715 7.41559 3.27465 7.41628ZM5.98717 7.3918C5.68439 7.40579 5.44743 7.67236 5.44808 7.9942C5.46125 8.31604 5.71203 8.56721 6.01481 8.55322C6.31101 8.53852 6.54731 8.27266 6.53414 7.95082C6.5269 7.63598 6.28336 7.3911 5.98717 7.3918ZM8.69903 7.3953C8.39625 7.40229 8.15929 7.66116 8.15994 7.983V7.9907C8.16653 8.31254 8.41665 8.55671 8.72009 8.54972C9.01629 8.54202 9.25259 8.27546 9.24601 7.95362C9.23218 7.64577 8.99457 7.3946 8.69903 7.3953ZM7.92891 2.10665L4.01909 2.11224L4.01975 2.67826C4.01975 2.97981 3.8032 3.21769 3.51358 3.21769C3.22396 3.21839 3.00609 2.98121 3.00609 2.67966L3.00543 2.14093C1.72191 2.27596 1.01169 3.06797 1.01366 4.58551L1.01432 4.8031L10.9798 4.7891V4.54423C10.9514 3.03998 10.2327 2.25078 8.94257 2.13323L8.94323 2.67196C8.94323 2.97281 8.72009 3.21139 8.43706 3.21139C8.14744 3.21209 7.92957 2.97421 7.92957 2.67336L7.92891 2.10665Z" fill="#200E32"/>
</svg>
