<svg width="20" height="16" viewBox="0 0 20 16" fill="none" xmlns="http://www.w3.org/2000/svg">
<path d="M14.5253 0C16.0392 0.0151563 17.4802 0.584832 18.5126 1.57639C19.5449 2.56796 20.0786 3.89485 19.9906 5.20797L19.9893 10.752C20.0786 12.1051 19.5449 13.432 18.5126 14.4236C17.4802 15.4152 16.0392 15.9848 14.5168 16H5.45618C2.28665 16 0 13.7231 0 10.792V5.20797C0 2.2769 2.28665 0 5.45618 0H14.5253ZM14.5084 1.35856H5.45618C3.16279 1.35856 1.51744 2.99694 1.51744 5.20797V10.792C1.51744 13.0031 3.16279 14.6414 5.45618 14.6414H14.5084C15.6073 14.6305 16.6532 14.217 17.4026 13.4972C18.152 12.7775 18.5393 11.8143 18.4732 10.792L18.4745 5.1679C18.5393 4.18566 18.152 3.22252 17.4026 2.50278C16.6532 1.78304 15.6073 1.36953 14.5084 1.35856ZM16.024 5.01188C16.2621 5.27815 16.24 5.65566 15.9882 5.89823L15.9058 5.96671L11.7988 8.90989C10.8013 9.60598 9.42309 9.64079 8.38304 9.01114L8.22174 8.90621L4.08726 5.96847C3.75904 5.73526 3.70412 5.30796 3.96461 5.0141C4.20141 4.74694 4.61736 4.68202 4.93763 4.84765L5.03057 4.90428L9.15981 7.83833C9.62278 8.16141 10.2575 8.18626 10.7408 7.91717L10.8583 7.84377L14.9576 4.90604C15.2847 4.6716 15.7622 4.71899 16.024 5.01188Z" fill="#200E32"/>
</svg>
