<svg width="20" height="20" viewBox="0 0 20 20" fill="none" xmlns="http://www.w3.org/2000/svg">
<g clip-path="url(#clip0)">
<path d="M16.0547 10.268V8.39844C16.0547 5.67102 14.2418 3.35934 11.7579 2.6043V1.75781C11.7579 0.788555 10.9693 0 10 0C9.03079 0 8.24223 0.788555 8.24223 1.75781V2.6043C5.75825 3.35934 3.94536 5.67098 3.94536 8.39844V10.268C3.94536 12.6638 3.03216 14.9355 1.37399 16.6648C1.21149 16.8342 1.16583 17.0843 1.25794 17.3002C1.35005 17.5161 1.56216 17.6562 1.79692 17.6562H7.1293C7.40149 18.9919 8.58524 20 10 20C11.4149 20 12.5986 18.9919 12.8708 17.6562H18.2032C18.4379 17.6562 18.65 17.5161 18.7421 17.3002C18.8342 17.0843 18.7886 16.8342 18.6261 16.6648C16.9679 14.9355 16.0547 12.6638 16.0547 10.268ZM9.41411 1.75781C9.41411 1.43473 9.67696 1.17188 10 1.17188C10.3231 1.17188 10.586 1.43473 10.586 1.75781V2.37219C10.3931 2.35359 10.1977 2.34375 10 2.34375C9.80239 2.34375 9.60696 2.35359 9.41411 2.37219V1.75781ZM10 18.8281C9.23618 18.8281 8.58489 18.3382 8.34301 17.6562H11.6571C11.4152 18.3382 10.7639 18.8281 10 18.8281ZM3.05981 16.4844C4.39423 14.6956 5.11723 12.5309 5.11723 10.268V8.39844C5.11723 5.70605 7.30766 3.51562 10 3.51562C12.6924 3.51562 14.8829 5.70605 14.8829 8.39844V10.268C14.8829 12.5309 15.6059 14.6956 16.9403 16.4844H3.05981Z" fill="black"/>
<path d="M17.6172 8.39847C17.6172 8.72207 17.8796 8.98441 18.2032 8.98441C18.5268 8.98441 18.7891 8.72207 18.7891 8.39847C18.7891 6.05082 17.8749 3.84367 16.2149 2.18363C15.9861 1.95484 15.615 1.9548 15.3862 2.18363C15.1574 2.41246 15.1574 2.78343 15.3862 3.01226C16.8249 4.45097 17.6172 6.36382 17.6172 8.39847Z" fill="black"/>
<path d="M1.79687 8.98439C2.12047 8.98439 2.38281 8.72204 2.38281 8.39845C2.38281 6.36384 3.17516 4.45099 4.61383 3.01228C4.84266 2.78345 4.84266 2.41247 4.61383 2.18364C4.38504 1.95482 4.01402 1.95482 3.7852 2.18364C2.12516 3.84368 1.21094 6.05079 1.21094 8.39845C1.21094 8.72204 1.47328 8.98439 1.79687 8.98439Z" fill="black"/>
</g>
<defs>
<clipPath id="clip0">
<rect width="20" height="20" fill="white"/>
</clipPath>
</defs>
</svg>
