<svg width="15" height="20" viewBox="0 0 15 20" fill="none" xmlns="http://www.w3.org/2000/svg">
<path d="M5.46569 12.8209C6.81923 12.6935 8.18058 12.6935 9.53411 12.8209L9.96627 12.8599C10.5574 12.922 11.1443 13.0194 11.7219 13.1509C13.1941 13.4744 14.2632 14.0483 14.7364 15.1127C15.0879 15.9047 15.0879 16.8241 14.7362 17.6164C14.2618 18.6836 13.179 19.2623 11.7329 19.5666L11.2948 19.6636C10.7092 19.7835 10.1186 19.8653 9.53206 19.9081C8.43135 20.0081 7.3255 20.0263 6.25877 19.9637C6.14119 19.9637 6.06226 19.9633 5.99272 19.9615L5.85748 19.9561C5.69306 19.9472 5.54241 19.9288 5.4792 19.909C4.73706 19.8553 3.99985 19.7407 3.29264 19.5705L3.05275 19.5171C1.71358 19.1997 0.72184 18.6271 0.263098 17.6153C0.0893614 17.2227 -0.000503011 16.7935 1.85597e-05 16.3627C-0.00149112 15.9288 0.0891068 15.5002 0.269305 15.0999C0.747068 14.0763 1.86956 13.4604 3.27264 13.1521C3.99959 12.9859 4.73658 12.8749 5.46569 12.8209ZM9.41586 14.263C8.14101 14.143 6.8588 14.143 5.57152 14.264C4.89341 14.3144 4.21946 14.4159 3.54944 14.569C2.51176 14.7971 1.71839 15.2324 1.48238 15.7379C1.39547 15.931 1.3507 16.1428 1.35144 16.3609C1.35119 16.5803 1.39656 16.797 1.48149 16.989C1.72422 17.5243 2.47287 17.9244 3.56979 18.1537L3.90027 18.2283C4.45377 18.3454 5.02382 18.4261 5.65734 18.4771C5.73734 18.4942 5.82367 18.5048 5.92611 18.5103L6.29511 18.5171C7.33591 18.5771 8.37933 18.5599 9.42898 18.4647C10.1055 18.4152 10.7775 18.3112 11.4558 18.1498L11.6667 18.1021C12.63 17.8691 13.2965 17.4879 13.5159 16.9944C13.6928 16.5958 13.6928 16.133 13.516 15.7348C13.2813 15.2067 12.5392 14.8083 11.4456 14.568C10.7804 14.4165 10.1062 14.3149 9.42774 14.264L9.41586 14.263ZM7.50403 0C10.2547 0 12.4845 2.38864 12.4845 5.33517C12.4845 8.28171 10.2547 10.6703 7.50403 10.6703C4.75338 10.6703 2.52354 8.28171 2.52354 5.33517C2.52354 2.38864 4.75338 0 7.50403 0ZM7.50403 1.44767C5.49975 1.44767 3.87496 3.18816 3.87496 5.33517C3.87496 7.48218 5.49975 9.22268 7.50403 9.22268C9.5083 9.22268 11.1331 7.48218 11.1331 5.33517C11.1331 3.18816 9.5083 1.44767 7.50403 1.44767Z" fill="#200E32"/>
</svg>
