<svg width="20" height="20" viewBox="0 0 20 20" fill="none" xmlns="http://www.w3.org/2000/svg">
<g clip-path="url(#clip0)">
<path d="M15.625 20H4.375C3.34167 20 2.5 19.1592 2.5 18.125V9.375C2.5 8.34083 3.34167 7.5 4.375 7.5H15.625C16.6583 7.5 17.5 8.34083 17.5 9.375V18.125C17.5 19.1592 16.6583 20 15.625 20ZM4.375 8.75C4.03083 8.75 3.75 9.03 3.75 9.375V18.125C3.75 18.47 4.03083 18.75 4.375 18.75H15.625C15.9692 18.75 16.25 18.47 16.25 18.125V9.375C16.25 9.03 15.9692 8.75 15.625 8.75H4.375Z" fill="black"/>
<path d="M14.375 8.75C14.03 8.75 13.75 8.47 13.75 8.125V5C13.75 2.9325 12.0675 1.25 10 1.25C7.9325 1.25 6.25 2.9325 6.25 5V8.125C6.25 8.47 5.97 8.75 5.625 8.75C5.28 8.75 5 8.47 5 8.125V5C5 2.2425 7.2425 0 10 0C12.7575 0 15 2.2425 15 5V8.125C15 8.47 14.72 8.75 14.375 8.75Z" fill="black"/>
<path d="M10 14.1666C9.08087 14.1666 8.33337 13.4191 8.33337 12.4999C8.33337 11.5808 9.08087 10.8333 10 10.8333C10.9192 10.8333 11.6667 11.5808 11.6667 12.4999C11.6667 13.4191 10.9192 14.1666 10 14.1666ZM10 12.0832C9.77087 12.0832 9.58337 12.2699 9.58337 12.4999C9.58337 12.7299 9.77087 12.9166 10 12.9166C10.2292 12.9166 10.4167 12.7299 10.4167 12.4999C10.4167 12.2699 10.2292 12.0832 10 12.0832Z" fill="black"/>
<path d="M10 16.6667C9.655 16.6667 9.375 16.3867 9.375 16.0417V13.75C9.375 13.405 9.655 13.125 10 13.125C10.345 13.125 10.625 13.405 10.625 13.75V16.0417C10.625 16.3867 10.345 16.6667 10 16.6667Z" fill="black"/>
</g>
<defs>
<clipPath id="clip0">
<rect width="20" height="20" fill="white"/>
</clipPath>
</defs>
</svg>
