<svg width="17" height="20" viewBox="0 0 17 20" fill="none" xmlns="http://www.w3.org/2000/svg">
<path d="M8.50986 5.09923e-05C11.4108 5.09923e-05 13.777 2.25673 13.8935 5.08268L13.898 5.30116L13.8987 6.87726C15.7041 7.49411 17 9.18239 17 11.169V15.458C17 17.9669 14.9331 20 12.3833 20H4.61668C2.06691 20 0 17.9669 0 15.458V11.169C0 9.18201 1.29638 7.49347 3.1023 6.87691L3.10239 5.27788C3.11542 2.34988 5.53763 -0.0126526 8.50986 5.09923e-05ZM12.3833 8.12697H4.61668C2.90889 8.12697 1.52466 9.48856 1.52466 11.169V15.458C1.52466 17.1384 2.90889 18.5 4.61668 18.5H12.3833C14.0911 18.5 15.4753 17.1384 15.4753 15.458V11.169C15.4753 9.48856 14.0911 8.12697 12.3833 8.12697ZM8.5002 11.4531C8.88614 11.4531 9.2051 11.7352 9.25558 12.1013L9.26253 12.2031V14.4241C9.26253 14.8383 8.92123 15.1741 8.5002 15.1741C8.11426 15.1741 7.79531 14.8919 7.74483 14.5259L7.73787 14.4241V12.2031C7.73787 11.7889 8.07918 11.4531 8.5002 11.4531ZM8.50654 1.5001C6.43972 1.49123 4.74531 3.08062 4.63294 5.08585L4.62705 5.28116L4.62685 6.62602H12.3732L12.3734 5.30116C12.3734 3.20236 10.6431 1.50011 8.50654 1.5001Z" fill="#200E32"/>
</svg>
