<svg width="16" height="15" viewBox="0 0 16 15" fill="none" xmlns="http://www.w3.org/2000/svg">
<path d="M15.4002 3.50493L15.3387 3.59855L8.08696 13.8401C7.36751 14.8557 5.81798 14.5812 5.46934 13.4234L5.43856 13.3047L4.19768 7.64036L0.467353 3.13558C-0.325551 2.17793 0.344959 0.743021 1.5521 0.703728L1.67457 0.704521L14.2045 1.25931C15.3366 1.31109 15.9749 2.55824 15.4002 3.50493ZM14.2093 2.41945L14.1526 2.41192L1.62314 1.85715C1.36239 1.84542 1.20051 2.13058 1.32013 2.34721L1.35601 2.39973L4.88406 6.65985L10.0103 4.1122C10.2696 3.98327 10.5794 4.06768 10.7401 4.29844L10.7836 4.37199C10.9126 4.63136 10.8282 4.94109 10.5974 5.10182L10.5238 5.14536L5.3907 7.69624L6.56562 13.0578C6.62152 13.3131 6.92789 13.3936 7.10425 13.2216L7.14541 13.1733L14.3974 2.93135C14.5375 2.73392 14.4273 2.4683 14.2093 2.41945Z" fill="#200E32"/>
</svg>
