<svg width="163" height="156" viewBox="0 0 163 156" fill="none" xmlns="http://www.w3.org/2000/svg">
<path d="M0.843582 50.3313L11.0059 58.2715L1.44122 76.5941C-3.34097 85.043 4.87454 93.2734 10.109 96.1385C15.262 98.9588 23.26 99.2941 30.7323 99.1925L44.1822 77.205L54.3445 82.7018L36.71 50.0263L0.843582 50.3313ZM2.33782 95.1838L24.1566 135.494C28.5404 141.092 36.8097 142.416 45.3778 142.212H68.3921V104.04L24.7545 103.735C17.9799 104.141 9.11267 102.716 2.33782 95.1838ZM139.611 20.897L127.74 25.9357L116.351 8.68768C111.281 0.409038 100.099 3.60415 95.0555 6.79343C90.0908 9.9331 85.9198 16.7658 82.3862 23.3504L95.0961 45.7738L85.3616 51.9969L122.49 52.415L139.611 20.897ZM99.6578 0.459438L53.8238 0C46.802 1.11968 41.6354 7.71044 37.6597 15.3034L26.5021 35.4322L59.8886 53.9386L81.3116 15.9201C84.2398 9.79702 89.7852 2.73276 99.6578 0.459438ZM101.652 156L103 143.174L123.607 141.576C133.306 141.154 135.932 129.826 135.588 123.868C135.249 118.004 131.295 111.043 127.249 104.76L101.475 105.006L100.751 93.4747L82.3857 125.745L101.652 156ZM138.897 130.965L161.519 91.1003C163.944 84.4159 160.685 76.7018 155.971 69.5434L143.775 50.026L111.403 70.2543L134.269 107.423C138.204 112.953 141.695 121.227 138.897 130.965Z" fill="#585757" fill-opacity="0.5"/>
</svg>
