<svg width="12" height="14" viewBox="0 0 12 14" fill="none" xmlns="http://www.w3.org/2000/svg">
<path d="M11.6261 8.36694C11.4703 7.3645 11.0555 6.42155 10.4239 5.63358C9.79226 4.84561 8.96617 4.2406 8.02928 3.87981L8.94433 0.637501C8.96536 0.56308 8.96903 0.484732 8.95506 0.40863C8.94109 0.332529 8.90985 0.260752 8.86382 0.19895C8.81778 0.137148 8.7582 0.08701 8.68977 0.0524864C8.62133 0.0179628 8.54592 -4.31644e-06 8.46946 7.77835e-10H3.53054C3.45408 -4.31644e-06 3.37867 0.0179628 3.31023 0.0524864C3.2418 0.08701 3.18222 0.137148 3.13618 0.19895C3.09015 0.260752 3.05891 0.332529 3.04494 0.40863C3.03097 0.484732 3.03464 0.56308 3.05567 0.637501L3.97072 3.87994C3.03383 4.24072 2.20774 4.84573 1.57612 5.6337C0.944488 6.42167 0.52975 7.36462 0.373898 8.36706L0.0362606 10.5321C-0.0305261 10.9604 -0.00484062 11.3981 0.111547 11.8154C0.227935 12.2326 0.432259 12.6193 0.710451 12.9489C0.988644 13.2785 1.33409 13.5431 1.72301 13.7246C2.11193 13.906 2.53507 14 2.96331 14H9.03669C9.46492 14 9.88807 13.906 10.277 13.7246C10.6659 13.5431 11.0114 13.2785 11.2895 12.9489C11.5677 12.6193 11.7721 12.2326 11.8885 11.8154C12.0048 11.3981 12.0305 10.9604 11.9637 10.5321L11.6261 8.36694ZM4.18532 1H7.81468L7.07928 3.60581C6.36651 3.46473 5.63349 3.46473 4.92072 3.60581L4.18532 1ZM10.5387 12.2992C10.3533 12.5191 10.123 12.6956 9.8637 12.8166C9.60439 12.9376 9.32222 13.0002 9.03669 13H2.96331C2.6778 13 2.39568 12.9374 2.13638 12.8165C1.87707 12.6955 1.64674 12.5191 1.46126 12.2994C1.27577 12.0796 1.13953 11.8218 1.06192 11.5437C0.984309 11.2655 0.967175 10.9736 1.0117 10.6881L1.34939 8.52294C1.49603 7.58165 1.9181 6.70649 2.56107 6.01053C3.20404 5.31456 4.03837 4.82976 4.95628 4.61875L3.41145 6.80858C3.25486 7.03055 3.30598 7.33718 3.5261 7.49636C3.74989 7.65818 4.06275 7.60604 4.22196 7.38038L5.50611 5.56025V7.50611C5.50611 7.77888 5.72723 8 6 8C6.27277 8 6.49389 7.77888 6.49389 7.50611V5.56025L7.77829 7.38064C7.9375 7.6063 8.25036 7.65843 8.47414 7.49661C8.69427 7.33743 8.74538 7.0308 8.58879 6.80883L7.04396 4.619C7.96181 4.83003 8.79608 5.3148 9.43901 6.01072C10.0819 6.70663 10.504 7.58172 10.6507 8.52294L10.9884 10.6881C11.033 10.9736 11.016 11.2655 10.9383 11.5437C10.8607 11.8219 10.7243 12.0796 10.5387 12.2992Z" fill="#32A37F"/>
</svg>
