<svg width="16" height="16" viewBox="0 0 16 16" fill="none" xmlns="http://www.w3.org/2000/svg">
<path d="M10.6667 2H0.666748V10.6667H10.6667V2Z" stroke="#32A37F" stroke-linecap="round" stroke-linejoin="round"/>
<path d="M10.6667 5.33301H13.3334L15.3334 7.33301V10.6663H10.6667V5.33301Z" stroke="#32A37F" stroke-linecap="round" stroke-linejoin="round"/>
<path d="M3.66667 14.0003C4.58714 14.0003 5.33333 13.2541 5.33333 12.3337C5.33333 11.4132 4.58714 10.667 3.66667 10.667C2.74619 10.667 2 11.4132 2 12.3337C2 13.2541 2.74619 14.0003 3.66667 14.0003Z" stroke="#32A37F" stroke-linecap="round" stroke-linejoin="round"/>
<path d="M12.3334 14.0003C13.2539 14.0003 14.0001 13.2541 14.0001 12.3337C14.0001 11.4132 13.2539 10.667 12.3334 10.667C11.4129 10.667 10.6667 11.4132 10.6667 12.3337C10.6667 13.2541 11.4129 14.0003 12.3334 14.0003Z" stroke="#32A37F" stroke-linecap="round" stroke-linejoin="round"/>
</svg>
