<svg xmlns="http://www.w3.org/2000/svg" width="200" height="200" fill="none" xmlns:v="https://vecta.io/nano"><path d="M103.181 197.018c50.946 0 92.246-41.3 92.246-92.247s-41.3-92.246-92.246-92.246-92.247 41.3-92.247 92.246 41.3 92.247 92.247 92.247z" fill="#71c2f5"/><path d="M119.086 190.656c-50.947 0-92.247-41.3-92.247-92.247 0-35.79 20.382-66.817 50.171-82.112-38.198 11.282-66.075 46.62-66.075 88.474 0 50.947 41.3 92.247 92.247 92.247 15.157 0 29.46-3.657 42.076-10.134-8.298 2.45-17.08 3.772-26.171 3.772z" fill="#56ace1"/><path d="M77.006 16.299C59.38 21.507 43.95 31.835 32.445 45.566l6.731 6.731c8.869-15.336 22.024-27.882 37.83-35.999zm2.249 165.337L66.02 189.22c11.37 5.01 23.939 7.798 37.161 7.798 15.152 0 29.447-3.656 42.059-10.129-8.292 2.447-17.068 3.767-26.154 3.767-14.264 0-27.772-3.24-39.83-9.02z" fill="#15b259"/><path d="M182.994 151.046l-49.064-11.682s-7.687-23.062-7.687-26.906 19.218-26.905 19.218-26.905l46.768-4.923c-10.611-39.236-46.456-68.105-89.048-68.105-9.093 0-17.876 1.322-26.175 3.774-15.805 8.116-28.961 20.663-37.83 35.998l10.194 10.194 30.749 3.844 23.061 19.351 3.844 22.93 3.844 23.061-14.049 39.894-17.564 10.065c12.058 5.781 25.565 9.021 39.83 9.021a92.24 92.24 0 0 0 26.154-3.768 92.68 92.68 0 0 0 37.754-35.843z" fill="#3ac274"/><path d="M26.839 98.409l.303-7.481-15.352 1.28c-.56 4.109-.855 8.301-.855 12.563 0 30.627 14.93 57.763 37.905 74.541l12.108-9.288c-20.81-16.913-34.108-42.709-34.108-71.615z" fill="#15b259"/><path d="M80.119 135.52l-19.218-11.531-15.375-34.592-18.385 1.532-.303 7.481c0 28.906 13.298 54.702 34.107 71.616l10.425-7.997 8.748-26.508z" fill="#3ac274"/><path d="M103.181 133.4c0-14.054 11.393-25.448 25.447-25.448s25.447 11.394 25.447 25.448c0 19.085-25.447 44.532-25.447 44.532s-25.447-25.447-25.447-44.532z" fill="#ffcf1a"/><path d="M112.724 130.219c0-9.442 5.147-17.677 12.783-22.069-12.58 1.539-22.326 12.253-22.326 25.25 0 19.085 25.447 44.532 25.447 44.532s2.613-2.614 6.162-6.79c-6.922-7.69-22.066-26.199-22.066-40.923z" fill="#ffbe35"/><path d="M128.628 146.123c7.027 0 12.724-5.696 12.724-12.723s-5.697-12.724-12.724-12.724-12.724 5.696-12.724 12.724 5.697 12.723 12.724 12.723z" fill="#ffe88f"/><path d="M128.628 28.429c0-14.054 11.394-25.447 25.447-25.447s25.448 11.393 25.448 25.447c0 19.086-25.448 44.533-25.448 44.533s-25.447-25.447-25.447-44.533z" fill="#ffcf1a"/><path d="M138.171 25.249c0-9.442 5.147-17.677 12.784-22.069-12.581 1.539-22.327 12.253-22.327 25.25 0 19.086 25.447 44.533 25.447 44.533s2.613-2.614 6.162-6.79c-6.921-7.69-22.066-26.198-22.066-40.923z" fill="#ffbe35"/><path d="M154.075 41.153c7.028 0 12.724-5.697 12.724-12.724s-5.696-12.724-12.724-12.724-12.723 5.697-12.723 12.724 5.696 12.724 12.723 12.724z" fill="#ffe88f"/><path d="M4.573 69.781c0-14.054 11.393-25.447 25.447-25.447s25.447 11.393 25.447 25.447c0 19.086-25.447 44.533-25.447 44.533S4.573 88.867 4.573 69.781z" fill="#ffcf1a"/><path d="M14.115 66.6c0-9.442 5.147-17.677 12.784-22.069-12.581 1.54-22.327 12.253-22.327 25.25 0 19.086 25.447 44.533 25.447 44.533s2.613-2.614 6.162-6.79C29.26 99.833 14.115 81.325 14.115 66.6z" fill="#ffbe35"/><path d="M30.02 82.505c7.027 0 12.724-5.697 12.724-12.724S37.047 57.057 30.02 57.057s-12.724 5.697-12.724 12.724 5.697 12.724 12.724 12.724z" fill="#ffe88f"/><path d="M177.802 45.607c2.791-5.72 4.703-11.653 4.703-17.178C182.505 12.754 169.752 0 154.075 0c-10.148 0-19.067 5.35-24.098 13.373a95.15 95.15 0 0 0-16.937-3.326c-1.635-.17-3.103 1.023-3.272 2.661a2.98 2.98 0 0 0 2.662 3.271 89.16 89.16 0 0 1 14.894 2.831c-1.084 3.006-1.678 6.244-1.678 9.618 0 20.09 25.247 45.567 26.321 46.641 1.149 1.148 3.069 1.148 4.217 0 .679-.679 10.996-11.09 18.508-23.729 6.13 8.177 10.731 17.162 13.711 26.693l-43.255 4.553a2.98 2.98 0 0 0-1.978 1.057c-.449.538-11.029 13.253-16.447 21.397-6.129.408-11.734 2.76-16.195 6.453l-.562-3.372-3.844-22.929c-.117-.7-.481-1.335-1.024-1.792L82.036 64.05a2.98 2.98 0 0 0-1.547-.674l-23.63-2.954a28.56 28.56 0 0 0-17.914-17.627c15.885-16.493 37.052-26.118 60-27.19a2.98 2.98 0 0 0 2.84-3.118c-.076-1.645-1.473-2.924-3.117-2.84a94.37 94.37 0 0 0-37.035 9.413c-11.26 5.468-21.206 12.995-29.564 22.373-.677-.048-1.359-.082-2.048-.082-15.676 0-28.429 12.754-28.429 28.429 0 7.082 3.139 14.833 7.249 21.95a96.42 96.42 0 0 0-.888 13.04c0 25.437 9.906 49.35 27.892 67.337S77.744 200 103.181 200s49.35-9.906 67.337-27.892 27.891-41.9 27.891-67.337c0-21.735-7.126-42.186-20.607-59.164zM154.075 68.63c-5.956-6.463-22.465-25.684-22.465-40.2 0-12.387 10.078-22.465 22.465-22.465s22.466 10.078 22.466 22.465c0 14.516-16.509 33.738-22.466 40.2zm-25.447 42.304c12.387 0 22.465 10.078 22.465 22.466 0 14.516-16.508 33.737-22.465 40.2-5.957-6.463-22.465-25.684-22.465-40.2 0-12.388 10.078-22.466 22.465-22.466zM78.876 69.185l21.546 18.079 3.661 21.841 1.321 7.929c-3.274 4.631-5.205 10.275-5.205 16.366 0 3.964.985 8.137 2.572 12.292l-8.396 23.842-28.49 16.327a89.23 89.23 0 0 1-11.965-6.687l19.267-14.78a2.98 2.98 0 0 0 1.017-1.432l8.748-26.507a2.98 2.98 0 0 0-1.297-3.492l-18.41-11.046L50.42 93.061c4.488-7.471 8.031-15.754 8.031-23.279a28.64 28.64 0 0 0-.181-3.172l20.607 2.576zM30.02 47.316c12.387 0 22.465 10.078 22.465 22.465 0 14.516-16.508 33.738-22.465 40.201-5.957-6.463-22.465-25.685-22.465-40.201 0-12.387 10.078-22.465 22.465-22.465zm-16.103 57.455a90.01 90.01 0 0 1 .138-4.953c6.538 9.225 13.312 16.059 13.857 16.605 1.148 1.148 3.069 1.148 4.217 0 .561-.561 7.709-7.774 14.414-17.398l11.633 26.176c.249.56.665 1.03 1.191 1.346l17.173 10.304-7.712 23.37-19.978 15.325c-21.227-16.334-34.934-41.982-34.934-70.775zm89.265 89.265c-10.638 0-20.845-1.874-30.313-5.303l25.434-14.575a2.98 2.98 0 0 0 1.33-1.597l6.739-19.135c7.548 13.905 19.419 25.885 20.149 26.615 1.148 1.148 3.069 1.148 4.217 0 .837-.837 16.344-16.486 23.156-32.859l24.379 5.805c-15.899 24.675-43.618 41.049-75.091 41.049zm78.289-46.418l-25.608-6.097c.758-2.755 1.196-5.485 1.196-8.121 0-13.942-10.092-25.564-23.352-27.966 4.579-6.4 11.069-14.36 13.277-17.041l43.026-4.529c1.612 6.762 2.436 13.761 2.436 20.908 0 15.516-3.983 30.119-10.975 42.846zm-52.843 1.487c8.66 0 15.706-7.045 15.706-15.705s-7.046-15.706-15.706-15.706-15.706 7.045-15.706 15.706 7.046 15.705 15.706 15.705zm0-25.447c5.372 0 9.742 4.37 9.742 9.742s-4.37 9.741-9.742 9.741-9.741-4.37-9.741-9.741 4.37-9.742 9.741-9.742zm25.447-110.934c-8.66 0-15.705 7.046-15.705 15.706s7.045 15.706 15.705 15.706 15.706-7.046 15.706-15.706-7.045-15.706-15.706-15.706zm0 25.447c-5.372 0-9.741-4.37-9.741-9.741s4.37-9.741 9.741-9.741 9.742 4.37 9.742 9.741-4.37 9.741-9.742 9.741zM45.726 69.781c0-8.66-7.046-15.706-15.706-15.706s-15.706 7.046-15.706 15.706S21.36 85.487 30.02 85.487s15.706-7.046 15.706-15.706zm-25.447 0c0-5.371 4.37-9.741 9.741-9.741s9.741 4.37 9.741 9.741-4.37 9.741-9.741 9.741-9.741-4.37-9.741-9.741z" fill="#304860"/></svg>